<svg width="20" height="20" viewBox="0 0 20 20" fill="none" xmlns="http://www.w3.org/2000/svg">
<path fill-rule="evenodd" clip-rule="evenodd" d="M12.5 5.83337V9.16671H13.3333V10.8334H10.8333V4.16671H12.5L10 0.833374L7.5 4.16671H9.16667V10.8334H6.66667V9.10837C7.25 8.80004 7.66667 8.20837 7.66667 7.50004C7.66667 6.49171 6.84167 5.66671 5.83333 5.66671C4.825 5.66671 4 6.49171 4 7.50004C4 8.20837 4.41667 8.80004 5 9.10837V10.8334C5 11.7584 5.74167 12.5 6.66667 12.5H9.16667V15.0417C8.575 15.35 8.16667 15.9584 8.16667 16.6667C8.16667 17.6834 8.99167 18.5 10 18.5C11.0083 18.5 11.8333 17.6834 11.8333 16.6667C11.8333 15.9584 11.425 15.35 10.8333 15.0417V12.5H13.3333C14.2583 12.5 15 11.7584 15 10.8334V9.16671H15.8333V5.83337H12.5Z" fill="white"/>
</svg>
