<svg width="20" height="20" viewBox="0 0 20 20" fill="none" xmlns="http://www.w3.org/2000/svg">
<path fill-rule="evenodd" clip-rule="evenodd" d="M9.99999 5C6.78332 5 4.16666 7.61667 4.16666 10.8333C4.16666 14.05 6.78332 16.6667 9.99999 16.6667C13.2167 16.6667 15.8333 14.05 15.8333 10.8333C15.8333 7.61667 13.2167 5 9.99999 5ZM13.125 14.0417L9.16666 11.6667V6.66667H10.4167V11.0417L13.75 13.0167L13.125 14.0417Z" fill="#28A745" fill-opacity="0.3"/>
<path fill-rule="evenodd" clip-rule="evenodd" d="M10.4167 6.6667H9.16667V11.6667L13.125 14.0417L13.75 13.0167L10.4167 11.0417V6.6667ZM14.4475 1.50836L18.2867 4.71253L17.22 5.9917L13.3783 2.7892L14.4475 1.50836ZM5.55251 1.50836L6.62084 2.78836L2.78084 5.9917L1.71417 4.7117L5.55251 1.50836ZM10 3.33336C5.85834 3.33336 2.50001 6.6917 2.50001 10.8334C2.50001 14.975 5.85834 18.3334 10 18.3334C14.1417 18.3334 17.5 14.975 17.5 10.8334C17.5 6.6917 14.1417 3.33336 10 3.33336ZM10 16.6667C6.78334 16.6667 4.16667 14.05 4.16667 10.8334C4.16667 7.6167 6.78334 5.00003 10 5.00003C13.2167 5.00003 15.8333 7.6167 15.8333 10.8334C15.8333 14.05 13.2167 16.6667 10 16.6667Z" fill="white"/>
</svg>
