<svg width="20" height="20" viewBox="0 0 20 20" fill="none" xmlns="http://www.w3.org/2000/svg">
<path fill-rule="evenodd" clip-rule="evenodd" d="M4.16666 9.16667C4.39166 9.16667 4.59999 9.075 4.75833 8.91667C5.08333 8.58333 5.08333 8.06667 4.74999 7.74167C4.59166 7.59167 4.38333 7.5 4.16666 7.5C3.94166 7.5 3.73333 7.59167 3.57499 7.75C3.24999 8.08333 3.24999 8.6 3.58333 8.925C3.74166 9.075 3.94999 9.16667 4.16666 9.16667ZM15 7.5H9.16666V9.16667H16.6667C16.6667 8.25 15.9167 7.5 15 7.5Z" fill="#28A745" fill-opacity="0.3"/>
<path fill-rule="evenodd" clip-rule="evenodd" d="M4.16666 10.8334C4.81666 10.8334 5.45832 10.5834 5.94999 10.0834C6.91666 9.09171 6.89999 7.51671 5.91666 6.55004C5.42499 6.07504 4.79166 5.83337 4.16666 5.83337C3.51666 5.83337 2.87499 6.08337 2.38332 6.58337C1.41666 7.57504 1.43332 9.15004 2.41666 10.1167C2.90832 10.5917 3.54166 10.8334 4.16666 10.8334ZM3.57499 7.75004C3.73332 7.59171 3.94166 7.50004 4.16666 7.50004C4.38332 7.50004 4.59166 7.58337 4.74999 7.73337C5.08332 8.05837 5.08332 8.57504 4.76666 8.90837C4.59999 9.07504 4.39166 9.16671 4.16666 9.16671C3.94999 9.16671 3.74166 9.08337 3.58332 8.93337C3.24999 8.60004 3.24999 8.08337 3.57499 7.75004ZM15 5.83337H7.49999V10.8334H18.3333V9.16671C18.3333 7.32504 16.8417 5.83337 15 5.83337ZM9.16666 9.16671V7.50004H15C15.9167 7.50004 16.6667 8.25004 16.6667 9.16671H9.16666ZM1.66666 13.3334H6.66666V15H13.3333V13.3334H18.3333V11.6667H1.66666V13.3334Z" fill="white"/>
</svg>
