<svg width="1519" height="768" viewBox="0 0 1519 768" fill="none" xmlns="http://www.w3.org/2000/svg">
<path d="M1519 0H0V768H1519V0Z" fill="#8FC9FF"/>
<path d="M1467.3 846.962C1465.89 848.469 1464.01 849.24 1462.01 849.131C1445.97 848.257 1370.92 841.586 1316 792.249C1276.91 757.126 1255.83 690.778 1251.57 676.225C1251.1 674.62 1252.07 672.93 1253.7 672.352C1263.25 668.97 1294.25 656.996 1321.14 635.538C1347.75 614.297 1362.65 592.13 1367.03 585.047C1367.85 583.718 1369.45 583.063 1370.91 583.463C1378.63 585.593 1403.68 591.423 1436.84 588.22C1470.34 584.984 1500.9 571.781 1510.11 567.49C1511.69 566.756 1513.47 567.318 1514.14 568.844C1520.17 582.674 1546.46 646.891 1539.65 700.786C1530.09 776.492 1478.64 834.895 1467.3 846.962Z" fill="url(#paint0_linear_798_4048)"/>
<path fill-rule="evenodd" clip-rule="evenodd" d="M1422.74 660.677C1413.61 668.776 1398.22 674.712 1386.01 674.842C1376.1 674.946 1366.29 678.385 1358.65 685.226C1342.54 699.665 1342.16 723.851 1357.67 739.555C1357.67 739.558 1357.68 739.563 1357.67 739.568L1362.12 743.44C1377.13 756.529 1390.33 771.234 1401.44 787.281L1412.02 802.546C1415.3 806.843 1421.57 808.311 1427.28 806.112C1433.4 803.751 1437.11 797.845 1436.04 792.174L1429.7 758.717C1428.95 754.776 1431.53 750.672 1435.78 749.031C1440.04 747.39 1444.72 748.698 1446.81 752.117L1464.62 781.151C1467.64 786.072 1474.36 787.954 1480.49 785.592C1486.18 783.394 1489.85 778.088 1489.39 772.706L1486.95 754.303C1484.39 734.957 1484.26 715.213 1486.58 695.44L1487.27 689.59C1487.26 689.587 1487.26 689.582 1487.26 689.578C1488.19 667.537 1471.64 649.881 1449.99 650.002C1439.74 650.059 1430.16 654.098 1422.74 660.677Z" fill="url(#paint1_linear_798_4048)"/>
<path fill-rule="evenodd" clip-rule="evenodd" d="M1459.31 838.349C1460.5 838.428 1461.66 837.956 1462.49 837.044C1471.1 827.683 1519.12 772.682 1528.37 701.37C1535 650.145 1510.84 589.138 1506.73 579.255C1506.4 578.474 1505.5 578.195 1504.71 578.574C1497.93 581.798 1468.29 595.168 1435.66 598.397C1403.34 601.595 1378.87 594.199 1373.02 592.209C1372.26 591.95 1371.39 592.306 1370.99 593.04C1367.91 598.682 1354.43 621.598 1328.44 642.244C1302.2 663.091 1271.77 674.292 1264.72 676.721C1263.88 677.007 1263.39 677.858 1263.64 678.669C1266.84 688.922 1287.46 751.384 1324.75 784.643C1376.65 830.945 1447.01 837.536 1459.31 838.349ZM1449.22 809.213C1450.1 809.265 1450.95 808.919 1451.57 808.252C1457.96 801.392 1493.74 760.843 1500.19 706.737C1504.86 667.615 1485.86 619.826 1482.88 612.657C1482.67 612.134 1482.08 611.952 1481.54 612.207C1476.75 614.508 1454.59 624.593 1430.12 626.837C1405.79 629.067 1387.76 624.188 1383.76 622.973C1383.27 622.826 1382.73 623.048 1382.46 623.502C1380.25 627.26 1369.97 643.72 1350.52 659.389C1330.95 675.159 1308.14 683.461 1303.13 685.169C1302.58 685.358 1302.26 685.916 1302.43 686.458C1304.75 693.892 1320.84 742.871 1349.02 768.561C1388 804.09 1440.15 808.675 1449.22 809.213Z" fill="url(#paint2_linear_798_4048)"/>
<path fill-rule="evenodd" clip-rule="evenodd" d="M1459.31 838.349C1460.5 838.428 1461.66 837.956 1462.49 837.044C1471.1 827.683 1519.12 772.682 1528.37 701.37C1535 650.145 1510.84 589.138 1506.73 579.255C1506.4 578.474 1505.5 578.195 1504.71 578.574C1497.93 581.798 1468.29 595.168 1435.66 598.397C1403.34 601.595 1378.87 594.199 1373.02 592.209C1372.26 591.95 1371.39 592.306 1370.99 593.04C1367.91 598.682 1354.43 621.598 1328.44 642.244C1302.2 663.091 1271.77 674.292 1264.72 676.721C1263.88 677.007 1263.39 677.858 1263.64 678.669C1266.84 688.922 1287.46 751.384 1324.75 784.643C1376.65 830.945 1447.01 837.536 1459.31 838.349ZM1449.22 809.213C1450.1 809.265 1450.95 808.919 1451.57 808.252C1457.96 801.392 1493.74 760.843 1500.19 706.737C1504.86 667.615 1485.86 619.826 1482.88 612.657C1482.67 612.134 1482.08 611.952 1481.54 612.207C1476.75 614.508 1454.59 624.593 1430.12 626.837C1405.79 629.067 1387.76 624.188 1383.76 622.973C1383.27 622.826 1382.73 623.048 1382.46 623.502C1380.25 627.26 1369.97 643.72 1350.52 659.389C1330.95 675.159 1308.14 683.461 1303.13 685.169C1302.58 685.358 1302.26 685.916 1302.43 686.458C1304.75 693.892 1320.84 742.871 1349.02 768.561C1388 804.09 1440.15 808.675 1449.22 809.213Z" fill="url(#paint3_linear_798_4048)" fill-opacity="0.2"/>
<path fill-rule="evenodd" clip-rule="evenodd" d="M1459.31 838.349C1460.5 838.428 1461.66 837.956 1462.49 837.044C1471.1 827.683 1519.12 772.682 1528.37 701.37C1535 650.145 1510.84 589.138 1506.73 579.255C1506.4 578.474 1505.5 578.195 1504.71 578.574C1497.93 581.798 1468.29 595.168 1435.66 598.397C1403.34 601.595 1378.87 594.199 1373.02 592.209C1372.26 591.95 1371.39 592.306 1370.99 593.04C1367.91 598.682 1354.43 621.598 1328.44 642.244C1302.2 663.091 1271.77 674.292 1264.72 676.721C1263.88 677.007 1263.39 677.858 1263.64 678.669C1266.84 688.922 1287.46 751.384 1324.75 784.643C1376.65 830.945 1447.01 837.536 1459.31 838.349ZM1449.22 809.213C1450.1 809.265 1450.95 808.919 1451.57 808.252C1457.96 801.392 1493.74 760.843 1500.19 706.737C1504.86 667.615 1485.86 619.826 1482.88 612.657C1482.67 612.134 1482.08 611.952 1481.54 612.207C1476.75 614.508 1454.59 624.593 1430.12 626.837C1405.79 629.067 1387.76 624.188 1383.76 622.973C1383.27 622.826 1382.73 623.048 1382.46 623.502C1380.25 627.26 1369.97 643.72 1350.52 659.389C1330.95 675.159 1308.14 683.461 1303.13 685.169C1302.58 685.358 1302.26 685.916 1302.43 686.458C1304.75 693.892 1320.84 742.871 1349.02 768.561C1388 804.09 1440.15 808.675 1449.22 809.213Z" fill="url(#paint4_radial_798_4048)" fill-opacity="0.14"/>
<g filter="url(#filter0_i_798_4048)">
<path d="M1374.17 586.787L1366.72 589.834C1365.38 590.381 1364.68 591.884 1365.15 593.191L1372.55 613.577C1373.02 614.884 1374.49 615.499 1375.83 614.952L1383.28 611.905C1384.62 611.358 1385.32 609.855 1384.84 608.549L1377.45 588.162C1376.97 586.855 1375.51 586.24 1374.17 586.787Z" fill="#E2E6F5"/>
</g>
<g filter="url(#filter1_i_798_4048)">
<path d="M1264.3 673.006L1259.45 682.233C1258.79 683.491 1259.34 684.9 1260.68 685.382L1273.43 689.971C1274.77 690.452 1276.39 689.823 1277.05 688.566L1281.89 679.339C1282.55 678.081 1282 676.672 1280.66 676.19L1267.92 671.601C1266.58 671.12 1264.96 671.749 1264.3 673.006Z" fill="#DEE2F2"/>
</g>
<g filter="url(#filter2_i_798_4048)">
<path d="M1504.13 574.998L1513.36 578.32C1514.7 578.802 1515.25 580.211 1514.59 581.469L1507.93 594.141C1507.27 595.398 1505.65 596.027 1504.31 595.546L1495.09 592.224C1493.75 591.742 1493.2 590.332 1493.86 589.075L1500.51 576.403C1501.17 575.145 1502.79 574.516 1504.13 574.998Z" fill="#DEE2F2"/>
</g>
<path fill-rule="evenodd" clip-rule="evenodd" d="M233.164 -19.1525C214.754 -1.0012 182.818 11.3147 156.974 10.2301C135.975 9.34897 115.585 16.3796 100.195 31.7239C67.716 64.1053 69.6701 121.377 104.319 160.358C104.327 160.367 104.331 160.378 104.331 160.39L114.183 170.071C147.491 202.799 177.11 239.149 202.491 278.443L226.636 315.823C234.072 326.378 247.552 330.573 259.379 326.012C272.08 321.113 279.271 307.54 276.347 293.98L259.096 213.971C257.064 204.548 262.061 195.116 270.887 191.712C279.714 188.308 289.76 191.939 294.594 200.281L335.641 271.113C342.598 283.118 357.054 288.344 369.755 283.445C381.582 278.884 388.744 266.729 387.15 253.921L379.885 210.032C372.248 163.894 369.73 117.092 372.38 70.498L373.165 56.7141C373.156 56.7057 373.152 56.6947 373.152 56.6831C372.589 4.55658 335.508 -39.1688 289.672 -41.3479C267.953 -42.3806 248.122 -33.9005 233.164 -19.1525Z" fill="url(#paint5_linear_798_4048)"/>
<g filter="url(#filter3_f_798_4048)">
<path d="M125.935 56.4707L108.229 28.9944C107.708 28.1854 106.66 27.8617 105.728 28.2214L98.3883 31.0518C97.431 31.4209 96.8722 32.4022 97.0682 33.3697L103.455 64.8924C104.034 67.7492 102.733 70.7032 100.181 72.3261L69.8831 91.5948C69.0478 92.1259 68.6957 93.1433 69.0393 94.0323L71.7841 101.134C72.1392 102.053 73.1335 102.57 74.1345 102.357L108.623 95.0077C111.712 94.3497 114.835 95.6765 116.374 98.2997L133.38 127.295C133.882 128.151 134.962 128.508 135.924 128.137L143.237 125.316C144.176 124.954 144.735 124.002 144.568 123.048L138.672 89.4607C138.164 86.5608 139.572 83.612 142.206 82.0634L170.855 65.2188C172.171 64.4441 172.747 62.8751 172.217 61.5031L170.064 55.9309C169.551 54.6045 168.145 53.8292 166.687 54.0692L133.187 59.5854C130.308 60.0593 127.459 58.8356 125.935 56.4707Z" fill="url(#paint6_linear_798_4048)"/>
</g>
<path d="M121.669 60.5108L105.759 30.9283C105.069 29.6431 103.484 29.0868 102.068 29.6327C100.621 30.1909 99.8224 31.7181 100.228 33.1536L109.221 64.9906C110.509 69.5491 108.325 74.4454 103.975 76.7514L71.9053 93.753C70.4952 94.5004 69.8524 96.1361 70.4058 97.5679C70.975 99.0407 72.6219 99.8169 74.198 99.355L108.412 89.3281C113.295 87.8972 118.44 90.055 120.606 94.4427L135.87 125.347C136.53 126.683 138.146 127.28 139.591 126.723C141.005 126.177 141.802 124.7 141.442 123.287L132.834 89.4175C131.658 84.7897 134.014 79.9113 138.476 77.7365L169.536 62.5955C171.014 61.8751 171.71 60.1926 171.141 58.7179C170.587 57.2856 169.012 56.5031 167.463 56.8907L133.289 65.4405C128.64 66.6037 123.853 64.5729 121.669 60.5108Z" fill="url(#paint7_linear_798_4048)"/>
<g filter="url(#filter4_f_798_4048)">
<path d="M347.271 116.409L337.403 101.096C336.881 100.287 335.834 99.963 334.902 100.323L331.499 101.635C330.542 102.004 329.983 102.985 330.179 103.953L333.712 121.391C334.291 124.248 332.989 127.202 330.437 128.824L313.491 139.602C312.657 140.133 312.304 141.15 312.647 142.039L313.927 145.348C314.281 146.266 315.276 146.783 316.277 146.57L335.397 142.495C338.486 141.837 341.609 143.164 343.148 145.787L352.56 161.835C353.063 162.691 354.142 163.049 355.104 162.678L358.482 161.375C359.421 161.013 359.979 160.061 359.811 159.107L356.526 140.389C356.017 137.489 357.426 134.54 360.059 132.991L375.6 123.854C376.918 123.079 377.494 121.51 376.963 120.138L376.275 118.36C375.763 117.033 374.358 116.258 372.9 116.498L354.523 119.524C351.644 119.998 348.795 118.774 347.271 116.409Z" fill="url(#paint8_linear_798_4048)"/>
</g>
<path d="M344.141 117.831L335.518 101.795C335.083 100.987 334.086 100.637 333.196 100.98C332.287 101.331 331.784 102.292 332.039 103.194L336.875 120.313C338.162 124.872 335.979 129.768 331.628 132.074L314.23 141.297C313.344 141.767 312.94 142.796 313.287 143.696C313.646 144.622 314.681 145.11 315.672 144.82L334.05 139.434C338.933 138.003 344.078 140.161 346.244 144.548L354.45 161.163C354.865 162.003 355.881 162.378 356.789 162.028C357.679 161.685 358.179 160.756 357.953 159.867L353.291 141.521C352.115 136.893 354.47 132.015 358.932 129.84L375.618 121.706C376.547 121.253 376.985 120.196 376.627 119.268C376.278 118.368 375.289 117.876 374.315 118.119L355.762 122.761C351.113 123.924 346.326 121.893 344.141 117.831Z" fill="url(#paint9_linear_798_4048)"/>
<path d="M504.1 633.963L663.969 572.31L679.198 629.619C683.604 646.2 697.144 658.766 713.857 661.784L527.344 733.712C537.691 720.259 539.265 701.864 531.374 686.627L504.1 633.963Z" fill="url(#paint10_linear_798_4048)"/>
<path d="M504.1 633.963L663.969 572.31L679.198 629.619C683.604 646.2 697.144 658.766 713.857 661.784L527.344 733.712C537.691 720.259 539.265 701.864 531.374 686.627L504.1 633.963Z" fill="url(#paint11_linear_798_4048)" fill-opacity="0.4"/>
<path d="M504.1 633.963L663.969 572.31L679.198 629.619C683.604 646.2 697.144 658.766 713.857 661.784L527.344 733.712C537.691 720.259 539.265 701.864 531.374 686.627L504.1 633.963Z" fill="url(#paint12_linear_798_4048)" fill-opacity="0.05"/>
<path d="M504.1 633.963L663.969 572.31L679.198 629.619C683.604 646.2 697.144 658.766 713.857 661.784L527.344 733.712C537.691 720.259 539.265 701.864 531.374 686.627L504.1 633.963Z" fill="url(#paint13_linear_798_4048)" fill-opacity="0.2"/>
<path d="M504.1 633.963L663.969 572.31L679.198 629.619C683.604 646.2 697.144 658.766 713.857 661.784L527.344 733.712C537.691 720.259 539.265 701.864 531.374 686.627L504.1 633.963Z" fill="url(#paint14_linear_798_4048)" fill-opacity="0.3"/>
<path d="M728.064 674.929C727.61 667.424 721.693 661.337 714.262 660.933L642.056 657.011C617.86 655.697 594.345 664.765 577.31 681.981L526.474 733.353C521.243 738.639 520.955 747.12 525.668 752.983C539.823 770.594 548.187 783.236 562.354 805.073L579.01 830.746C586.464 841.283 600.014 845.446 611.933 840.866C611.944 840.862 611.953 840.858 611.964 840.854C611.973 840.85 611.984 840.846 611.993 840.842C624.784 835.893 632.052 822.295 629.147 808.739L612.28 729.43C610.26 720.002 615.183 710.191 624.084 706.759C632.985 703.326 643.231 707.287 648.077 715.625L688.938 785.68C695.907 797.669 710.436 802.861 723.238 797.941C723.248 797.937 723.258 797.933 723.268 797.93C723.278 797.926 723.288 797.922 723.298 797.918C735.207 793.31 742.441 781.131 740.872 768.324L735.938 738.131C731.739 712.45 729.428 697.473 728.064 674.929Z" fill="url(#paint15_linear_798_4048)"/>
<path d="M728.064 674.929C727.61 667.424 721.693 661.337 714.262 660.933L642.056 657.011C617.86 655.697 594.345 664.765 577.31 681.981L526.474 733.353C521.243 738.639 520.955 747.12 525.668 752.983C539.823 770.594 548.187 783.236 562.354 805.073L579.01 830.746C586.464 841.283 600.014 845.446 611.933 840.866C611.944 840.862 611.953 840.858 611.964 840.854C611.973 840.85 611.984 840.846 611.993 840.842C624.784 835.893 632.052 822.295 629.147 808.739L612.28 729.43C610.26 720.002 615.183 710.191 624.084 706.759C632.985 703.326 643.231 707.287 648.077 715.625L688.938 785.68C695.907 797.669 710.436 802.861 723.238 797.941C723.248 797.937 723.258 797.933 723.268 797.93C723.278 797.926 723.288 797.922 723.298 797.918C735.207 793.31 742.441 781.131 740.872 768.324L735.938 738.131C731.739 712.45 729.428 697.473 728.064 674.929Z" fill="url(#paint16_radial_798_4048)" fill-opacity="0.2"/>
<path d="M516.667 543.038C542.698 544.051 574.901 531.632 593.498 513.409C601.305 505.758 610.416 499.779 620.419 495.921L620.427 495.918C629.78 492.312 639.912 490.56 650.482 491.03C696.656 493.082 733.889 536.768 734.294 588.963H734.307C734.007 593.986 733.657 599.049 733.359 604.113C732.898 611.965 726.522 618.189 718.734 618.102L626.736 617.072C602.647 616.802 579.444 625.751 561.785 642.12L494.348 704.636C488.638 709.929 479.729 709.599 474.106 704.094C470.481 700.543 466.815 697.028 463.215 693.51L463.223 693.501C428.412 654.575 426.597 597.23 459.412 564.716C474.959 549.311 495.518 542.215 516.667 543.038Z" fill="url(#paint17_linear_798_4048)"/>
<g filter="url(#filter5_f_798_4048)">
<path d="M463.41 577.32L448.202 553.721C447.681 552.912 446.633 552.588 445.701 552.948L439.617 555.294C438.659 555.663 438.101 556.645 438.296 557.612L443.774 584.645C444.352 587.502 443.051 590.456 440.499 592.079L414.457 608.641C413.622 609.172 413.27 610.19 413.613 611.079L415.891 616.971C416.246 617.89 417.24 618.407 418.241 618.194L447.832 611.889C450.92 611.231 454.044 612.557 455.582 615.181L470.167 640.048C470.67 640.905 471.75 641.262 472.712 640.891L478.771 638.554C479.71 638.192 480.268 637.24 480.101 636.286L475.038 607.438C474.528 604.538 475.936 601.589 478.57 600.041L503.041 585.653C504.359 584.878 504.934 583.309 504.404 581.937L502.717 577.574C502.205 576.248 500.798 575.473 499.342 575.712L470.661 580.435C467.783 580.909 464.933 579.685 463.41 577.32Z" fill="url(#paint18_linear_798_4048)"/>
</g>
<path d="M459.506 580.526L445.919 555.261C445.31 554.128 443.912 553.638 442.664 554.119C441.388 554.611 440.684 555.958 441.042 557.223L448.709 584.369C449.997 588.927 447.814 593.824 443.464 596.13L416.071 610.652C414.827 611.311 414.261 612.753 414.748 614.015C415.25 615.314 416.703 615.998 418.092 615.591L447.259 607.043C452.141 605.613 457.285 607.77 459.453 612.158L472.466 638.508C473.048 639.685 474.472 640.212 475.747 639.721C476.994 639.24 477.696 637.937 477.379 636.691L470.028 607.77C468.852 603.142 471.209 598.264 475.67 596.089L502.149 583.181C503.452 582.546 504.065 581.063 503.563 579.762C503.075 578.5 501.687 577.81 500.322 578.151L471.126 585.456C466.477 586.619 461.691 584.588 459.506 580.526Z" fill="url(#paint19_linear_798_4048)"/>
<path d="M1454.63 -31.6393C1437.41 -71.2401 1392.49 -90.4042 1352.79 -75.0923C1312.35 -59.5001 1292.1 -13.9016 1307.27 27.3742L1364.64 183.482C1373.96 208.819 1401.93 221.743 1426.75 212.172L1495.13 185.799C1520.39 176.057 1532.31 146.931 1521.35 121.737L1454.63 -31.6393Z" fill="url(#paint20_linear_798_4048)"/>
<path d="M1160.45 81.1719C1146.68 40.5971 1166.9 -3.4034 1206.29 -18.5969C1246.9 -34.2552 1292.71 -13.5555 1308.64 27.6373L1368.61 182.823C1378.23 207.705 1366.14 235.544 1341.61 245.002L1276.92 269.953C1251.66 279.694 1223.24 266.126 1214.41 240.111L1160.45 81.1719Z" fill="url(#paint21_linear_798_4048)"/>
<path fill-rule="evenodd" clip-rule="evenodd" d="M1157.08 138C1158.57 131.535 1164.99 127.571 1171.4 129.146C1193.51 134.577 1261.01 138.9 1341.96 107.684C1422.91 76.4655 1467.07 29.0808 1478.32 11.0429C1481.83 5.44097 1489.18 3.81196 1494.76 7.40436C1500.34 10.9968 1502.04 18.4502 1498.54 24.0521C1484.25 46.9247 1435.81 97.3749 1350.67 130.211C1265.52 163.05 1193.09 159.216 1165.99 152.56C1159.58 150.985 1155.59 144.466 1157.08 138Z" fill="url(#paint22_linear_798_4048)"/>
<g opacity="0.4">
<path fill-rule="evenodd" clip-rule="evenodd" d="M1495.12 7.63851C1489.66 3.85211 1482.25 5.21907 1478.56 10.6917C1465.83 29.5539 1418.75 78.0701 1337.81 109.286C1256.86 140.505 1192.28 135.053 1171.8 129.253C1165.44 127.452 1158.9 131.186 1157.18 137.592C1155.46 143.999 1159.23 150.652 1165.59 152.453C1191.55 159.807 1261.37 164.649 1346.51 131.812C1431.67 98.9733 1482.72 47.5194 1498.3 24.4035C1502 18.9309 1500.57 11.4249 1495.12 7.63851Z" fill="url(#paint23_radial_798_4048)" fill-opacity="0.3"/>
<path fill-rule="evenodd" clip-rule="evenodd" d="M1495.12 7.63851C1489.66 3.85211 1482.25 5.21907 1478.56 10.6917C1465.83 29.5539 1418.75 78.0701 1337.81 109.286C1256.86 140.505 1192.28 135.053 1171.8 129.253C1165.44 127.452 1158.9 131.186 1157.18 137.592C1155.46 143.999 1159.23 150.652 1165.59 152.453C1191.55 159.807 1261.37 164.649 1346.51 131.812C1431.67 98.9733 1482.72 47.5194 1498.3 24.4035C1502 18.9309 1500.57 11.4249 1495.12 7.63851Z" fill="url(#paint24_radial_798_4048)" fill-opacity="0.3"/>
</g>
<g opacity="0.4">
<path fill-rule="evenodd" clip-rule="evenodd" d="M1157.08 138C1158.57 131.535 1164.99 127.571 1171.4 129.146C1193.51 134.577 1261.01 138.9 1341.96 107.684C1422.91 76.4654 1467.07 29.0808 1478.32 11.0428C1481.83 5.44092 1489.18 3.8119 1494.76 7.40431C1500.35 10.9967 1502.04 18.4502 1498.54 24.0521C1484.25 46.9247 1435.81 97.3748 1350.67 130.211C1265.52 163.05 1193.09 159.215 1165.99 152.56C1159.58 150.985 1155.59 144.466 1157.08 138Z" fill="url(#paint25_radial_798_4048)" fill-opacity="0.3"/>
<path fill-rule="evenodd" clip-rule="evenodd" d="M1157.08 138C1158.57 131.535 1164.99 127.571 1171.4 129.146C1193.51 134.577 1261.01 138.9 1341.96 107.684C1422.91 76.4654 1467.07 29.0808 1478.32 11.0428C1481.83 5.44092 1489.18 3.8119 1494.76 7.40431C1500.35 10.9967 1502.04 18.4502 1498.54 24.0521C1484.25 46.9247 1435.81 97.3748 1350.67 130.211C1265.52 163.05 1193.09 159.215 1165.99 152.56C1159.58 150.985 1155.59 144.466 1157.08 138Z" fill="url(#paint26_radial_798_4048)" fill-opacity="0.3"/>
</g>
<g filter="url(#filter6_i_798_4048)">
<path d="M1221.85 146.51C1215.12 129.092 1223.58 109.605 1240.74 102.984L1261.61 94.9331C1278.79 88.3123 1298.15 97.0648 1304.89 114.482L1313.08 135.663C1319.81 153.081 1311.35 172.568 1294.18 179.189L1273.3 187.24C1256.14 193.861 1236.76 185.108 1230.03 167.691L1221.85 146.51Z" fill="url(#paint27_linear_798_4048)"/>
<path d="M1222.82 146.133C1216.27 129.185 1224.52 110.317 1241.11 103.923L1261.98 95.8721C1278.55 89.4784 1297.36 97.9115 1303.91 114.859L1312.1 136.04C1318.65 152.988 1310.4 171.856 1293.82 178.25L1272.94 186.301C1256.36 192.695 1237.55 184.262 1231 167.314L1222.82 146.133Z" stroke="url(#paint28_radial_798_4048)" stroke-width="2"/>
</g>
<g filter="url(#filter7_i_798_4048)">
<path d="M1372.83 88.2822C1366.1 70.8646 1374.56 51.3776 1391.72 44.7568L1412.61 36.7055C1429.77 30.0846 1449.15 38.8371 1455.88 56.2547L1464.06 77.4356C1470.79 94.8532 1462.33 114.34 1445.17 120.961L1424.28 129.012C1407.12 135.633 1387.74 126.881 1381.01 109.463L1372.83 88.2822Z" fill="url(#paint29_linear_798_4048)"/>
<path d="M1373.81 87.9054C1367.26 70.9577 1375.51 52.0895 1392.09 45.6958L1412.97 37.6444C1429.55 31.2507 1448.35 39.6839 1454.9 56.6315L1463.08 77.8124C1469.63 94.7601 1461.38 113.628 1444.8 120.022L1423.93 128.073C1407.34 134.467 1388.55 126.034 1381.99 109.086L1373.81 87.9054Z" stroke="url(#paint30_radial_798_4048)" stroke-width="2"/>
</g>
<path d="M1048.13 483.852L1034.81 488.99L1052.22 534.043L1065.55 528.906L1048.13 483.852Z" fill="url(#paint31_linear_798_4048)"/>
<path d="M1043.21 490.927C1091.04 472.483 1114.61 418.198 1095.86 369.678C1077.1 321.157 1023.13 296.775 975.306 315.219C927.481 333.663 903.913 387.948 922.665 436.468C941.418 484.989 995.39 509.371 1043.21 490.927Z" fill="url(#paint32_linear_798_4048)"/>
<path d="M1037.99 477.411C1078.46 461.805 1098.4 415.871 1082.53 374.815C1066.67 333.76 1021 313.129 980.53 328.735C940.062 344.341 920.12 390.275 935.988 431.331C951.855 472.386 997.524 493.017 1037.99 477.411Z" fill="url(#paint33_linear_798_4048)"/>
<path opacity="0.55" d="M1071.04 446.185C1086.83 421.5 1085.29 392.038 1067.6 380.381C1049.92 368.723 1022.78 379.285 1006.99 403.971C991.206 428.656 992.745 458.118 1010.43 469.775C1028.12 481.433 1055.25 470.871 1071.04 446.185Z" fill="url(#paint34_linear_798_4048)"/>
<g opacity="0.3" filter="url(#filter8_f_798_4048)">
<path d="M862.841 351.755C860.158 357.368 860.81 363.077 864.297 364.505C867.784 365.934 872.786 362.542 875.469 356.929C878.152 351.316 877.5 345.607 874.013 344.178C870.526 342.75 865.524 346.142 862.841 351.755Z" fill="url(#paint35_linear_798_4048)"/>
</g>
<g filter="url(#filter9_f_798_4048)">
<path d="M958.025 366.653L944.429 345.554C943.908 344.745 942.86 344.421 941.928 344.781L936.652 346.815C935.695 347.185 935.136 348.166 935.333 349.133L940.223 373.271C940.802 376.127 939.5 379.081 936.949 380.704L913.652 395.521C912.817 396.052 912.464 397.069 912.808 397.958L914.784 403.071C915.139 403.989 916.133 404.507 917.134 404.293L943.566 398.661C946.653 398.003 949.777 399.33 951.316 401.953L964.34 424.159C964.842 425.016 965.921 425.373 966.885 425.002L972.134 422.977C973.072 422.615 973.63 421.663 973.464 420.709L968.937 394.918C968.428 392.018 969.836 389.069 972.47 387.521L994.246 374.717C995.563 373.943 996.139 372.374 995.608 371.002L994.223 367.419C993.711 366.092 992.305 365.317 990.848 365.557L965.277 369.767C962.398 370.241 959.549 369.018 958.025 366.653Z" fill="url(#paint36_linear_798_4048)"/>
</g>
<path d="M954.355 369.32L942.266 346.841C941.709 345.806 940.433 345.358 939.293 345.797C938.127 346.247 937.485 347.477 937.81 348.633L944.624 372.752C945.912 377.311 943.727 382.207 939.378 384.513L915.001 397.436C913.866 398.038 913.348 399.355 913.793 400.509C914.252 401.695 915.578 402.32 916.848 401.948L942.759 394.354C947.641 392.924 952.785 395.081 954.953 399.469L966.515 422.881C967.046 423.956 968.348 424.437 969.511 423.989C970.65 423.549 971.292 422.359 971.003 421.221L964.464 395.491C963.288 390.864 965.643 385.985 970.105 383.81L993.629 372.344C994.818 371.763 995.38 370.408 994.921 369.221C994.474 368.067 993.207 367.437 991.959 367.749L965.975 374.25C961.327 375.413 956.54 373.382 954.355 369.32Z" fill="url(#paint37_linear_798_4048)"/>
<path d="M1161.79 434.652C1157.28 422.979 1156.04 410.304 1158.24 398.038L1170.91 327.004C1172.92 315.702 1168.1 304.198 1158.63 297.708L1129.8 277.944C1128.95 277.368 1128.69 276.24 1129.19 275.357C1129.72 274.404 1130.94 274.097 1131.87 274.679L1167.66 297.034C1177.54 303.203 1182.84 314.731 1181.1 326.257L1170.89 393.645C1169.1 405.374 1170.43 417.402 1174.72 428.511L1194.33 479.241L1181.01 484.379L1161.79 434.652Z" fill="url(#paint38_linear_798_4048)"/>
<path d="M1161.79 434.652C1157.28 422.979 1156.04 410.304 1158.24 398.038L1170.91 327.004C1172.92 315.702 1168.1 304.198 1158.63 297.708L1129.8 277.944C1128.95 277.368 1128.69 276.24 1129.19 275.357C1129.72 274.404 1130.94 274.097 1131.87 274.679L1167.66 297.034C1177.54 303.203 1182.84 314.731 1181.1 326.257L1170.89 393.645C1169.1 405.374 1170.43 417.402 1174.72 428.511L1194.33 479.241L1181.01 484.379L1161.79 434.652Z" fill="url(#paint39_linear_798_4048)" fill-opacity="0.2"/>
<path d="M1170.87 482.668C1170.17 480.262 1171.4 477.73 1173.71 476.84L1194.66 468.758C1196.97 467.869 1199.59 468.918 1200.69 471.174L1242.26 556.632C1248.51 569.482 1242.59 584.871 1229.46 589.938C1216.32 595.005 1201.58 587.579 1197.57 573.866L1170.87 482.668Z" fill="url(#paint40_linear_798_4048)"/>
<path d="M1170.87 482.668C1170.17 480.262 1171.4 477.73 1173.71 476.84L1194.66 468.758C1196.97 467.869 1199.59 468.918 1200.69 471.174L1242.26 556.632C1248.51 569.482 1242.59 584.871 1229.46 589.938C1216.32 595.005 1201.58 587.579 1197.57 573.866L1170.87 482.668Z" fill="url(#paint41_linear_798_4048)" fill-opacity="0.6"/>
<path d="M1170.87 482.668C1170.17 480.262 1171.4 477.73 1173.71 476.84L1194.66 468.758C1196.97 467.869 1199.59 468.918 1200.69 471.174L1242.26 556.632C1248.51 569.482 1242.59 584.871 1229.46 589.938C1216.32 595.005 1201.58 587.579 1197.57 573.866L1170.87 482.668Z" fill="url(#paint42_linear_798_4048)" fill-opacity="0.5"/>
<path d="M1042.09 532.333C1041.39 529.927 1042.62 527.395 1044.93 526.505L1065.88 518.423C1068.18 517.534 1070.8 518.583 1071.9 520.839L1113.48 606.296C1119.73 619.146 1113.82 634.536 1100.67 639.603C1087.54 644.67 1072.8 637.244 1068.79 623.531L1042.09 532.333Z" fill="url(#paint43_linear_798_4048)"/>
<path d="M1042.09 532.333C1041.39 529.927 1042.62 527.395 1044.93 526.505L1065.88 518.423C1068.18 517.534 1070.8 518.583 1071.9 520.839L1113.48 606.296C1119.73 619.146 1113.82 634.536 1100.67 639.603C1087.54 644.67 1072.8 637.244 1068.79 623.531L1042.09 532.333Z" fill="url(#paint44_linear_798_4048)" fill-opacity="0.6"/>
<path d="M1042.09 532.333C1041.39 529.927 1042.62 527.395 1044.93 526.505L1065.88 518.423C1068.18 517.534 1070.8 518.583 1071.9 520.839L1113.48 606.296C1119.73 619.146 1113.82 634.536 1100.67 639.603C1087.54 644.67 1072.8 637.244 1068.79 623.531L1042.09 532.333Z" fill="url(#paint45_linear_798_4048)" fill-opacity="0.5"/>
<path d="M33.8765 457.452C59.8582 458.338 92.062 445.919 110.707 427.822C125.857 413.119 145.859 404.583 167.693 405.448C213.779 407.273 250.755 450.294 250.929 501.889L250.942 501.89L250.562 535.139C250.473 542.987 245.681 549.947 238.449 552.737L23.3065 635.706C16.0735 638.496 7.84331 636.557 2.49724 630.805L-20.1506 606.436L-20.1417 606.428C-54.7219 568.101 -56.2787 511.421 -23.3765 479.134C-7.78834 463.837 12.7667 456.732 33.8765 457.452Z" fill="url(#paint46_linear_798_4048)"/>
<path d="M33.8765 457.452C59.8582 458.338 92.062 445.919 110.707 427.822C125.857 413.119 145.859 404.583 167.693 405.448C213.779 407.273 250.755 450.294 250.929 501.889L250.942 501.89L250.562 535.139C250.473 542.987 245.681 549.947 238.449 552.737L23.3065 635.706C16.0735 638.496 7.84331 636.557 2.49724 630.805L-20.1506 606.436L-20.1417 606.428C-54.7219 568.101 -56.2787 511.421 -23.3765 479.134C-7.78834 463.837 12.7667 456.732 33.8765 457.452Z" fill="url(#paint47_linear_798_4048)" fill-opacity="0.1"/>
<path d="M33.8765 457.452C59.8582 458.338 92.062 445.919 110.707 427.822C125.857 413.119 145.859 404.583 167.693 405.448C213.779 407.273 250.755 450.294 250.929 501.889L250.942 501.89L250.562 535.139C250.473 542.987 245.681 549.947 238.449 552.737L23.3065 635.706C16.0735 638.496 7.84331 636.557 2.49724 630.805L-20.1506 606.436L-20.1417 606.428C-54.7219 568.101 -56.2787 511.421 -23.3765 479.134C-7.78834 463.837 12.7667 456.732 33.8765 457.452Z" fill="url(#paint48_linear_798_4048)" fill-opacity="0.05"/>
<path d="M56.1677 638.564L216.036 576.911L221.742 690.973C222.887 713.854 209.437 734.761 188.339 742.897C167.241 751.034 143.216 744.579 128.672 726.865L56.1677 638.564Z" fill="url(#paint49_linear_798_4048)"/>
<path d="M10.8893 653.437C8.48516 647.217 11.5067 640.257 17.6381 637.892L244.117 550.551C250.249 548.186 257.168 551.312 259.573 557.533C261.977 563.753 258.955 570.713 252.824 573.077L26.3444 660.419C20.2129 662.784 13.2935 659.658 10.8893 653.437Z" fill="url(#paint50_linear_798_4048)"/>
<path d="M116.679 729.118C114.756 724.142 117.173 718.574 122.078 716.683L219.775 679.006C224.68 677.114 230.216 679.615 232.139 684.591C234.062 689.568 231.645 695.135 226.74 697.027L129.043 734.704C124.138 736.595 118.602 734.095 116.679 729.118Z" fill="url(#paint51_linear_798_4048)"/>
<path d="M93.3883 701.862C91.465 696.886 93.8822 691.318 98.7874 689.427L218.689 643.187C223.594 641.295 229.128 643.796 231.053 648.772C232.976 653.749 230.558 659.317 225.653 661.208L105.752 707.448C100.847 709.34 95.3117 706.839 93.3883 701.862Z" fill="url(#paint52_linear_798_4048)"/>
<path d="M70.0976 674.607C68.1743 669.63 70.5915 664.062 75.4967 662.171L217.601 607.368C222.506 605.477 228.042 607.977 229.965 612.954C231.889 617.93 229.471 623.498 224.566 625.39L82.4617 680.192C77.5566 682.084 72.021 679.583 70.0976 674.607Z" fill="url(#paint53_linear_798_4048)"/>
<path d="M601.147 139.963L761.016 78.31L776.245 135.619C780.651 152.2 794.191 164.766 810.904 167.784L624.391 239.712C634.738 226.259 636.312 207.864 628.421 192.627L601.147 139.963Z" fill="url(#paint54_linear_798_4048)"/>
<path d="M601.147 139.963L761.016 78.31L776.245 135.619C780.651 152.2 794.191 164.766 810.904 167.784L624.391 239.712C634.738 226.259 636.312 207.864 628.421 192.627L601.147 139.963Z" fill="url(#paint55_linear_798_4048)" fill-opacity="0.4"/>
<path d="M601.147 139.963L761.016 78.31L776.245 135.619C780.651 152.2 794.191 164.766 810.904 167.784L624.391 239.712C634.738 226.259 636.312 207.864 628.421 192.627L601.147 139.963Z" fill="url(#paint56_linear_798_4048)" fill-opacity="0.05"/>
<path d="M601.147 139.963L761.016 78.31L776.245 135.619C780.651 152.2 794.191 164.766 810.904 167.784L624.391 239.712C634.738 226.259 636.312 207.864 628.421 192.627L601.147 139.963Z" fill="url(#paint57_linear_798_4048)" fill-opacity="0.2"/>
<path d="M825.111 180.929C824.658 173.424 818.74 167.337 811.309 166.933L739.103 163.011C714.907 161.697 691.392 170.765 674.357 187.981L623.521 239.353C618.29 244.639 618.002 253.12 622.715 258.983C636.87 276.594 645.234 289.236 659.401 311.073L676.057 336.746C683.511 347.283 697.062 351.446 708.98 346.866C708.991 346.862 709.001 346.858 709.011 346.854C709.021 346.85 709.031 346.846 709.041 346.842C721.831 341.893 729.099 328.295 726.194 314.739L709.328 235.429C707.308 226.002 712.231 216.191 721.131 212.759C730.032 209.326 740.278 213.287 745.124 221.625L785.985 291.68C792.954 303.669 807.483 308.861 820.285 303.941C820.295 303.937 820.305 303.933 820.315 303.93C820.325 303.926 820.335 303.922 820.345 303.918C832.254 299.31 839.488 287.131 837.919 274.324L832.985 244.131C828.786 218.45 826.475 203.473 825.111 180.929Z" fill="url(#paint58_linear_798_4048)"/>
<path d="M825.111 180.929C824.658 173.424 818.74 167.337 811.309 166.933L739.103 163.011C714.907 161.697 691.392 170.765 674.357 187.981L623.521 239.353C618.29 244.639 618.002 253.12 622.715 258.983C636.87 276.594 645.234 289.236 659.401 311.073L676.057 336.746C683.511 347.283 697.062 351.446 708.98 346.866C708.991 346.862 709.001 346.858 709.011 346.854C709.021 346.85 709.031 346.846 709.041 346.842C721.831 341.893 729.099 328.295 726.194 314.739L709.328 235.429C707.308 226.002 712.231 216.191 721.131 212.759C730.032 209.326 740.278 213.287 745.124 221.625L785.985 291.68C792.954 303.669 807.483 308.861 820.285 303.941C820.295 303.937 820.305 303.933 820.315 303.93C820.325 303.926 820.335 303.922 820.345 303.918C832.254 299.31 839.488 287.131 837.919 274.324L832.985 244.131C828.786 218.45 826.475 203.473 825.111 180.929Z" fill="url(#paint59_radial_798_4048)" fill-opacity="0.2"/>
<path d="M613.714 49.0382C639.745 50.051 671.949 37.6316 690.545 19.4086C698.352 11.7582 707.464 5.77935 717.466 1.92133L717.474 1.91821C726.828 -1.68834 736.96 -3.44032 747.529 -2.9704C793.703 -0.91774 830.936 42.7674 831.342 94.9626L831.354 94.9631C831.054 99.9855 830.704 105.049 830.407 110.113C829.946 117.965 823.569 124.189 815.781 124.102L723.783 123.072C699.695 122.802 676.491 131.751 658.832 148.12L591.395 210.636C585.685 215.929 576.776 215.599 571.153 210.094C567.528 206.543 563.862 203.028 560.262 199.51L560.27 199.501C525.459 160.575 523.645 103.23 556.459 70.7155C572.006 55.311 592.565 48.2153 613.714 49.0382Z" fill="url(#paint60_linear_798_4048)"/>
<defs>
<filter id="filter0_i_798_4048" x="1365" y="586.587" width="19.9877" height="32.5645" filterUnits="userSpaceOnUse" color-interpolation-filters="sRGB">
<feFlood flood-opacity="0" result="BackgroundImageFix"/>
<feBlend mode="normal" in="SourceGraphic" in2="BackgroundImageFix" result="shape"/>
<feColorMatrix in="SourceAlpha" type="matrix" values="0 0 0 0 0 0 0 0 0 0 0 0 0 0 0 0 0 0 127 0" result="hardAlpha"/>
<feOffset dy="4"/>
<feGaussianBlur stdDeviation="2"/>
<feComposite in2="hardAlpha" operator="arithmetic" k2="-1" k3="1"/>
<feColorMatrix type="matrix" values="0 0 0 0 0.0684722 0 0 0 0 0.0823278 0 0 0 0 0.414861 0 0 0 0.15 0"/>
<feBlend mode="normal" in2="shape" result="effect1_innerShadow_798_4048"/>
</filter>
<filter id="filter1_i_798_4048" x="1259.18" y="671.439" width="23.9956" height="21.6931" filterUnits="userSpaceOnUse" color-interpolation-filters="sRGB">
<feFlood flood-opacity="0" result="BackgroundImageFix"/>
<feBlend mode="normal" in="SourceGraphic" in2="BackgroundImageFix" result="shape"/>
<feColorMatrix in="SourceAlpha" type="matrix" values="0 0 0 0 0 0 0 0 0 0 0 0 0 0 0 0 0 0 127 0" result="hardAlpha"/>
<feOffset dx="1" dy="3"/>
<feGaussianBlur stdDeviation="2"/>
<feComposite in2="hardAlpha" operator="arithmetic" k2="-1" k3="1"/>
<feColorMatrix type="matrix" values="0 0 0 0 0.0684722 0 0 0 0 0.0823278 0 0 0 0 0.414861 0 0 0 0.15 0"/>
<feBlend mode="normal" in2="shape" result="effect1_innerShadow_798_4048"/>
</filter>
<filter id="filter2_i_798_4048" x="1492.58" y="574.836" width="22.2864" height="23.8717" filterUnits="userSpaceOnUse" color-interpolation-filters="sRGB">
<feFlood flood-opacity="0" result="BackgroundImageFix"/>
<feBlend mode="normal" in="SourceGraphic" in2="BackgroundImageFix" result="shape"/>
<feColorMatrix in="SourceAlpha" type="matrix" values="0 0 0 0 0 0 0 0 0 0 0 0 0 0 0 0 0 0 127 0" result="hardAlpha"/>
<feOffset dx="-1" dy="3"/>
<feGaussianBlur stdDeviation="2"/>
<feComposite in2="hardAlpha" operator="arithmetic" k2="-1" k3="1"/>
<feColorMatrix type="matrix" values="0 0 0 0 0.0684722 0 0 0 0 0.0823278 0 0 0 0 0.414861 0 0 0 0.15 0"/>
<feBlend mode="normal" in2="shape" result="effect1_innerShadow_798_4048"/>
</filter>
<filter id="filter3_f_798_4048" x="64.9086" y="24.0756" width="111.504" height="108.207" filterUnits="userSpaceOnUse" color-interpolation-filters="sRGB">
<feFlood flood-opacity="0" result="BackgroundImageFix"/>
<feBlend mode="normal" in="SourceGraphic" in2="BackgroundImageFix" result="shape"/>
<feGaussianBlur stdDeviation="2" result="effect1_foregroundBlur_798_4048"/>
</filter>
<filter id="filter4_f_798_4048" x="308.517" y="96.177" width="72.6423" height="70.6466" filterUnits="userSpaceOnUse" color-interpolation-filters="sRGB">
<feFlood flood-opacity="0" result="BackgroundImageFix"/>
<feBlend mode="normal" in="SourceGraphic" in2="BackgroundImageFix" result="shape"/>
<feGaussianBlur stdDeviation="2" result="effect1_foregroundBlur_798_4048"/>
</filter>
<filter id="filter5_f_798_4048" x="409.483" y="548.802" width="99.1169" height="96.2348" filterUnits="userSpaceOnUse" color-interpolation-filters="sRGB">
<feFlood flood-opacity="0" result="BackgroundImageFix"/>
<feBlend mode="normal" in="SourceGraphic" in2="BackgroundImageFix" result="shape"/>
<feGaussianBlur stdDeviation="2" result="effect1_foregroundBlur_798_4048"/>
</filter>
<filter id="filter6_i_798_4048" x="1219.53" y="92.7224" width="95.8596" height="100.728" filterUnits="userSpaceOnUse" color-interpolation-filters="sRGB">
<feFlood flood-opacity="0" result="BackgroundImageFix"/>
<feBlend mode="normal" in="SourceGraphic" in2="BackgroundImageFix" result="shape"/>
<feColorMatrix in="SourceAlpha" type="matrix" values="0 0 0 0 0 0 0 0 0 0 0 0 0 0 0 0 0 0 127 0" result="hardAlpha"/>
<feOffset dy="4"/>
<feGaussianBlur stdDeviation="4"/>
<feComposite in2="hardAlpha" operator="arithmetic" k2="-1" k3="1"/>
<feColorMatrix type="matrix" values="0 0 0 0 0.148194 0 0 0 0 0.235583 0 0 0 0 0.585139 0 0 0 0.13 0"/>
<feBlend mode="normal" in2="shape" result="effect1_innerShadow_798_4048"/>
</filter>
<filter id="filter7_i_798_4048" x="1370.52" y="34.4947" width="95.8597" height="100.728" filterUnits="userSpaceOnUse" color-interpolation-filters="sRGB">
<feFlood flood-opacity="0" result="BackgroundImageFix"/>
<feBlend mode="normal" in="SourceGraphic" in2="BackgroundImageFix" result="shape"/>
<feColorMatrix in="SourceAlpha" type="matrix" values="0 0 0 0 0 0 0 0 0 0 0 0 0 0 0 0 0 0 127 0" result="hardAlpha"/>
<feOffset dy="4"/>
<feGaussianBlur stdDeviation="4"/>
<feComposite in2="hardAlpha" operator="arithmetic" k2="-1" k3="1"/>
<feColorMatrix type="matrix" values="0 0 0 0 0.148194 0 0 0 0 0.235583 0 0 0 0 0.585139 0 0 0 0.13 0"/>
<feBlend mode="normal" in2="shape" result="effect1_innerShadow_798_4048"/>
</filter>
<filter id="filter8_f_798_4048" x="857.188" y="339.852" width="23.9336" height="28.9801" filterUnits="userSpaceOnUse" color-interpolation-filters="sRGB">
<feFlood flood-opacity="0" result="BackgroundImageFix"/>
<feBlend mode="normal" in="SourceGraphic" in2="BackgroundImageFix" result="shape"/>
<feGaussianBlur stdDeviation="2" result="effect1_foregroundBlur_798_4048"/>
</filter>
<filter id="filter9_f_798_4048" x="908.677" y="340.635" width="91.1272" height="88.5128" filterUnits="userSpaceOnUse" color-interpolation-filters="sRGB">
<feFlood flood-opacity="0" result="BackgroundImageFix"/>
<feBlend mode="normal" in="SourceGraphic" in2="BackgroundImageFix" result="shape"/>
<feGaussianBlur stdDeviation="2" result="effect1_foregroundBlur_798_4048"/>
</filter>
<linearGradient id="paint0_linear_798_4048" x1="1368.42" y1="582.728" x2="1478.49" y2="843.605" gradientUnits="userSpaceOnUse">
<stop stop-color="#E2E6F5"/>
<stop offset="1" stop-color="#C6CADE"/>
</linearGradient>
<linearGradient id="paint1_linear_798_4048" x1="1353.44" y1="684.461" x2="1471.07" y2="792.224" gradientUnits="userSpaceOnUse">
<stop stop-color="#F5F6FA"/>
<stop offset="1" stop-color="#DDDFEA"/>
</linearGradient>
<linearGradient id="paint2_linear_798_4048" x1="1487.62" y1="818.539" x2="1135.03" y2="518.516" gradientUnits="userSpaceOnUse">
<stop stop-color="#E2E6F5"/>
<stop offset="0.705135" stop-color="#C6CADE"/>
</linearGradient>
<linearGradient id="paint3_linear_798_4048" x1="1371.61" y1="591.54" x2="1470.8" y2="834.075" gradientUnits="userSpaceOnUse">
<stop stop-color="#9DA6CE"/>
<stop offset="1" stop-color="#CED2E4"/>
</linearGradient>
<radialGradient id="paint4_radial_798_4048" cx="0" cy="0" r="1" gradientUnits="userSpaceOnUse" gradientTransform="translate(1355.54 547.242) rotate(70.0625) scale(310.28 282.432)">
<stop offset="0.000281262" stop-color="#454D6C" stop-opacity="0.67"/>
<stop offset="0.999714" stop-color="#CCD1E5"/>
</radialGradient>
<linearGradient id="paint5_linear_798_4048" x1="89.0614" y1="29.3156" x2="378.877" y2="262.979" gradientUnits="userSpaceOnUse">
<stop stop-color="#F0F6F9"/>
<stop offset="1" stop-color="#CDDFF2"/>
</linearGradient>
<linearGradient id="paint6_linear_798_4048" x1="102.03" y1="29.6473" x2="139.483" y2="126.764" gradientUnits="userSpaceOnUse">
<stop stop-color="white"/>
<stop offset="1" stop-color="white"/>
</linearGradient>
<linearGradient id="paint7_linear_798_4048" x1="102.03" y1="29.6473" x2="139.483" y2="126.764" gradientUnits="userSpaceOnUse">
<stop stop-color="white"/>
<stop offset="1" stop-color="white"/>
</linearGradient>
<linearGradient id="paint8_linear_798_4048" x1="333.173" y1="100.99" x2="356.722" y2="162.053" gradientUnits="userSpaceOnUse">
<stop stop-color="white"/>
<stop offset="1" stop-color="white"/>
</linearGradient>
<linearGradient id="paint9_linear_798_4048" x1="333.173" y1="100.99" x2="356.722" y2="162.053" gradientUnits="userSpaceOnUse">
<stop stop-color="white"/>
<stop offset="1" stop-color="white"/>
</linearGradient>
<linearGradient id="paint10_linear_798_4048" x1="591.87" y1="623.41" x2="618.809" y2="693.263" gradientUnits="userSpaceOnUse">
<stop stop-color="#AAC8E3"/>
<stop offset="1" stop-color="#C8DBED"/>
</linearGradient>
<linearGradient id="paint11_linear_798_4048" x1="520.705" y1="683.525" x2="545.122" y2="674.088" gradientUnits="userSpaceOnUse">
<stop stop-color="#F1F7FA"/>
<stop offset="1" stop-color="#F0F7FA" stop-opacity="0"/>
</linearGradient>
<linearGradient id="paint12_linear_798_4048" x1="591.87" y1="623.41" x2="599.691" y2="643.69" gradientUnits="userSpaceOnUse">
<stop stop-color="#065099"/>
<stop offset="1" stop-color="#065099" stop-opacity="0"/>
</linearGradient>
<linearGradient id="paint13_linear_798_4048" x1="584.034" y1="603.136" x2="603.152" y2="652.709" gradientUnits="userSpaceOnUse">
<stop stop-color="#23578B"/>
<stop offset="1" stop-color="#23578B" stop-opacity="0"/>
</linearGradient>
<linearGradient id="paint14_linear_798_4048" x1="590.128" y1="618.905" x2="610.115" y2="670.731" gradientUnits="userSpaceOnUse">
<stop stop-color="#E8C200"/>
<stop offset="1" stop-color="#FFE457" stop-opacity="0"/>
</linearGradient>
<linearGradient id="paint15_linear_798_4048" x1="507.103" y1="648.335" x2="669.281" y2="817.797" gradientUnits="userSpaceOnUse">
<stop stop-color="#E8F2F8"/>
<stop offset="1" stop-color="#CDDFF2"/>
</linearGradient>
<radialGradient id="paint16_radial_798_4048" cx="0" cy="0" r="1" gradientUnits="userSpaceOnUse" gradientTransform="translate(578.764 662.114) rotate(50.1607) scale(81.613 100.699)">
<stop stop-color="white"/>
<stop offset="1" stop-color="#EDF5F8" stop-opacity="0"/>
</radialGradient>
<linearGradient id="paint17_linear_798_4048" x1="468.142" y1="580.531" x2="800.794" y2="639.701" gradientUnits="userSpaceOnUse">
<stop stop-color="#F9EE93"/>
<stop offset="1" stop-color="#E4BB29"/>
</linearGradient>
<linearGradient id="paint18_linear_798_4048" x1="442.63" y1="554.132" x2="475.652" y2="639.757" gradientUnits="userSpaceOnUse">
<stop stop-color="white"/>
<stop offset="1" stop-color="white"/>
</linearGradient>
<linearGradient id="paint19_linear_798_4048" x1="442.63" y1="554.132" x2="475.652" y2="639.757" gradientUnits="userSpaceOnUse">
<stop stop-color="white"/>
<stop offset="1" stop-color="white"/>
</linearGradient>
<linearGradient id="paint20_linear_798_4048" x1="1309.33" y1="42.6175" x2="1443.84" y2="93.4054" gradientUnits="userSpaceOnUse">
<stop stop-color="#F0F6F9"/>
<stop offset="1" stop-color="#CDDFF2"/>
</linearGradient>
<linearGradient id="paint21_linear_798_4048" x1="1144.23" y1="90.7545" x2="1330.94" y2="186.341" gradientUnits="userSpaceOnUse">
<stop stop-color="#F0F6F9"/>
<stop offset="1" stop-color="#CDDFF2"/>
</linearGradient>
<linearGradient id="paint22_linear_798_4048" x1="1328.57" y1="79.2004" x2="1348.87" y2="138.664" gradientUnits="userSpaceOnUse">
<stop stop-color="#E3E7F6"/>
<stop offset="1" stop-color="#C7CCDF"/>
</linearGradient>
<radialGradient id="paint23_radial_798_4048" cx="0" cy="0" r="1" gradientUnits="userSpaceOnUse" gradientTransform="translate(1413.55 87.842) rotate(156.758) scale(64.2976 358.88)">
<stop stop-color="#ADB6DA"/>
<stop offset="1" stop-color="#626D97" stop-opacity="0"/>
</radialGradient>
<radialGradient id="paint24_radial_798_4048" cx="0" cy="0" r="1" gradientUnits="userSpaceOnUse" gradientTransform="translate(1413.55 87.842) rotate(156.758) scale(64.2976 358.88)">
<stop stop-color="#ADB6DA"/>
<stop offset="1" stop-color="#626D97" stop-opacity="0"/>
</radialGradient>
<radialGradient id="paint25_radial_798_4048" cx="0" cy="0" r="1" gradientUnits="userSpaceOnUse" gradientTransform="translate(1271.45 142.644) rotate(-18.9367) scale(64.3011 358.86)">
<stop stop-color="#ADB6DA"/>
<stop offset="1" stop-color="#626D97" stop-opacity="0"/>
</radialGradient>
<radialGradient id="paint26_radial_798_4048" cx="0" cy="0" r="1" gradientUnits="userSpaceOnUse" gradientTransform="translate(1271.45 142.644) rotate(-18.9367) scale(64.3011 358.86)">
<stop stop-color="#ADB6DA"/>
<stop offset="1" stop-color="#626D97" stop-opacity="0"/>
</radialGradient>
<linearGradient id="paint27_linear_798_4048" x1="1242.93" y1="101.872" x2="1307.75" y2="174.902" gradientUnits="userSpaceOnUse">
<stop stop-color="#F2F5FF"/>
<stop offset="1" stop-color="#D6DBF1"/>
</linearGradient>
<radialGradient id="paint28_radial_798_4048" cx="0" cy="0" r="1" gradientUnits="userSpaceOnUse" gradientTransform="translate(1255.81 29.6027) rotate(104.913) scale(125.379 124.911)">
<stop stop-color="white"/>
<stop offset="1" stop-color="white" stop-opacity="0"/>
</radialGradient>
<linearGradient id="paint29_linear_798_4048" x1="1393.91" y1="43.6447" x2="1458.73" y2="116.674" gradientUnits="userSpaceOnUse">
<stop stop-color="#F2F5FF"/>
<stop offset="1" stop-color="#D6DBF1"/>
</linearGradient>
<radialGradient id="paint30_radial_798_4048" cx="0" cy="0" r="1" gradientUnits="userSpaceOnUse" gradientTransform="translate(1406.8 -28.625) rotate(104.913) scale(125.379 124.911)">
<stop stop-color="white"/>
<stop offset="1" stop-color="white" stop-opacity="0"/>
</radialGradient>
<linearGradient id="paint31_linear_798_4048" x1="1046.64" y1="486.586" x2="1045.75" y2="514.369" gradientUnits="userSpaceOnUse">
<stop stop-color="#B9BED9"/>
<stop offset="1" stop-color="#D3D7E8"/>
</linearGradient>
<linearGradient id="paint32_linear_798_4048" x1="1095.86" y1="369.678" x2="1163.64" y2="545.435" gradientUnits="userSpaceOnUse">
<stop stop-color="#E9ECF7"/>
<stop offset="1" stop-color="#CDD1E4"/>
</linearGradient>
<linearGradient id="paint33_linear_798_4048" x1="1082.53" y1="374.815" x2="1139.89" y2="523.533" gradientUnits="userSpaceOnUse">
<stop stop-color="white"/>
<stop offset="1" stop-color="#E4E6ED"/>
</linearGradient>
<linearGradient id="paint34_linear_798_4048" x1="1051.88" y1="373.291" x2="1155.87" y2="438.689" gradientUnits="userSpaceOnUse">
<stop stop-color="white" stop-opacity="0"/>
<stop offset="1" stop-color="white"/>
</linearGradient>
<linearGradient id="paint35_linear_798_4048" x1="873.77" y1="341.277" x2="860.967" y2="335.557" gradientUnits="userSpaceOnUse">
<stop stop-color="white" stop-opacity="0"/>
<stop offset="1" stop-color="white"/>
</linearGradient>
<linearGradient id="paint36_linear_798_4048" x1="939.262" y1="345.809" x2="969.425" y2="424.022" gradientUnits="userSpaceOnUse">
<stop stop-color="white"/>
<stop offset="1" stop-color="white"/>
</linearGradient>
<linearGradient id="paint37_linear_798_4048" x1="939.262" y1="345.809" x2="969.425" y2="424.022" gradientUnits="userSpaceOnUse">
<stop stop-color="white"/>
<stop offset="1" stop-color="white"/>
</linearGradient>
<linearGradient id="paint38_linear_798_4048" x1="1237.76" y1="481.936" x2="1111.03" y2="306.095" gradientUnits="userSpaceOnUse">
<stop stop-color="#B9BED9"/>
<stop offset="1" stop-color="#D3D7E8"/>
</linearGradient>
<linearGradient id="paint39_linear_798_4048" x1="1154.02" y1="400.34" x2="1163.09" y2="402.312" gradientUnits="userSpaceOnUse">
<stop stop-color="white"/>
<stop offset="1" stop-color="white" stop-opacity="0"/>
</linearGradient>
<linearGradient id="paint40_linear_798_4048" x1="1183.48" y1="543.577" x2="1228.75" y2="528.589" gradientUnits="userSpaceOnUse">
<stop stop-color="#C7C0FA"/>
<stop offset="0.3125" stop-color="#D6D0FB"/>
<stop offset="1" stop-color="#8574F1"/>
</linearGradient>
<linearGradient id="paint41_linear_798_4048" x1="1225.5" y1="586.289" x2="1204.64" y2="532.21" gradientUnits="userSpaceOnUse">
<stop stop-color="#9080F3"/>
<stop offset="0.648933" stop-color="#9080F3" stop-opacity="0"/>
</linearGradient>
<linearGradient id="paint42_linear_798_4048" x1="1184.19" y1="472.799" x2="1186.79" y2="479.559" gradientUnits="userSpaceOnUse">
<stop stop-color="white"/>
<stop offset="1" stop-color="white" stop-opacity="0"/>
</linearGradient>
<linearGradient id="paint43_linear_798_4048" x1="1054.69" y1="593.242" x2="1099.96" y2="578.254" gradientUnits="userSpaceOnUse">
<stop stop-color="#C7C0FA"/>
<stop offset="0.3125" stop-color="#D6D0FB"/>
<stop offset="1" stop-color="#8574F1"/>
</linearGradient>
<linearGradient id="paint44_linear_798_4048" x1="1096.72" y1="635.954" x2="1075.86" y2="581.874" gradientUnits="userSpaceOnUse">
<stop stop-color="#9080F3"/>
<stop offset="0.648933" stop-color="#9080F3" stop-opacity="0"/>
</linearGradient>
<linearGradient id="paint45_linear_798_4048" x1="1055.4" y1="522.464" x2="1058.01" y2="529.224" gradientUnits="userSpaceOnUse">
<stop stop-color="white"/>
<stop offset="1" stop-color="white" stop-opacity="0"/>
</linearGradient>
<linearGradient id="paint46_linear_798_4048" x1="-34.5548" y1="476.831" x2="250.801" y2="711.319" gradientUnits="userSpaceOnUse">
<stop stop-color="#F0F6F9"/>
<stop offset="1" stop-color="#CDDFF2"/>
</linearGradient>
<linearGradient id="paint47_linear_798_4048" x1="131.269" y1="601.836" x2="126.055" y2="588.316" gradientUnits="userSpaceOnUse">
<stop offset="0.241809" stop-color="#065099"/>
<stop offset="1" stop-color="#DFEBF6" stop-opacity="0.47"/>
</linearGradient>
<linearGradient id="paint48_linear_798_4048" x1="130.878" y1="594.222" x2="123.926" y2="576.196" gradientUnits="userSpaceOnUse">
<stop stop-color="#065099"/>
<stop offset="1" stop-color="#065099" stop-opacity="0"/>
</linearGradient>
<linearGradient id="paint49_linear_798_4048" x1="254.818" y1="677.257" x2="49.4547" y2="688.27" gradientUnits="userSpaceOnUse">
<stop stop-color="#BCC1D6"/>
<stop offset="1" stop-color="#E9ECFA"/>
</linearGradient>
<linearGradient id="paint50_linear_798_4048" x1="86.6206" y1="611.289" x2="158.318" y2="596.191" gradientUnits="userSpaceOnUse">
<stop stop-color="#F0F3FF"/>
<stop offset="1" stop-color="#E1E5F5"/>
</linearGradient>
<linearGradient id="paint51_linear_798_4048" x1="150.379" y1="705.768" x2="176.365" y2="702.745" gradientUnits="userSpaceOnUse">
<stop stop-color="#F1F4FF"/>
<stop offset="1" stop-color="#D5DAF0"/>
</linearGradient>
<linearGradient id="paint52_linear_798_4048" x1="143.681" y1="672.114" x2="175.426" y2="669.147" gradientUnits="userSpaceOnUse">
<stop stop-color="#F1F4FF"/>
<stop offset="1" stop-color="#D5DAF0"/>
</linearGradient>
<linearGradient id="paint53_linear_798_4048" x1="131.006" y1="640.764" x2="168.521" y2="638.375" gradientUnits="userSpaceOnUse">
<stop stop-color="#F1F4FF"/>
<stop offset="1" stop-color="#D5DAF0"/>
</linearGradient>
<linearGradient id="paint54_linear_798_4048" x1="688.917" y1="129.41" x2="715.856" y2="199.263" gradientUnits="userSpaceOnUse">
<stop stop-color="#AAC8E3"/>
<stop offset="1" stop-color="#C8DBED"/>
</linearGradient>
<linearGradient id="paint55_linear_798_4048" x1="617.752" y1="189.525" x2="642.169" y2="180.088" gradientUnits="userSpaceOnUse">
<stop stop-color="#F1F7FA"/>
<stop offset="1" stop-color="#F0F7FA" stop-opacity="0"/>
</linearGradient>
<linearGradient id="paint56_linear_798_4048" x1="688.917" y1="129.41" x2="696.738" y2="149.69" gradientUnits="userSpaceOnUse">
<stop stop-color="#065099"/>
<stop offset="1" stop-color="#065099" stop-opacity="0"/>
</linearGradient>
<linearGradient id="paint57_linear_798_4048" x1="681.082" y1="109.136" x2="700.199" y2="158.709" gradientUnits="userSpaceOnUse">
<stop stop-color="#23578B"/>
<stop offset="1" stop-color="#23578B" stop-opacity="0"/>
</linearGradient>
<linearGradient id="paint58_linear_798_4048" x1="604.151" y1="154.335" x2="766.328" y2="323.797" gradientUnits="userSpaceOnUse">
<stop stop-color="#E8F2F8"/>
<stop offset="1" stop-color="#CDDFF2"/>
</linearGradient>
<radialGradient id="paint59_radial_798_4048" cx="0" cy="0" r="1" gradientUnits="userSpaceOnUse" gradientTransform="translate(675.811 168.114) rotate(50.1607) scale(81.613 100.699)">
<stop stop-color="white"/>
<stop offset="1" stop-color="#EDF5F8" stop-opacity="0"/>
</radialGradient>
<linearGradient id="paint60_linear_798_4048" x1="565.189" y1="86.5312" x2="819.83" y2="145.563" gradientUnits="userSpaceOnUse">
<stop stop-color="#F0F6F9"/>
<stop offset="1" stop-color="#CDDFF2"/>
</linearGradient>
</defs>
</svg>
